<svg class="rich-terminal" viewBox="0 0 994 635.5999999999999" xmlns="http://www.w3.org/2000/svg">
    <!-- Generated with Rich https://www.textualize.io -->
    <style>

    @font-face {
        font-family: "Fira Code";
        src: local("FiraCode-Regular"),
                url("https://cdnjs.cloudflare.com/ajax/libs/firacode/6.2.0/woff2/FiraCode-Regular.woff2") format("woff2"),
                url("https://cdnjs.cloudflare.com/ajax/libs/firacode/6.2.0/woff/FiraCode-Regular.woff") format("woff");
        font-style: normal;
        font-weight: 400;
    }
    @font-face {
        font-family: "Fira Code";
        src: local("FiraCode-Bold"),
                url("https://cdnjs.cloudflare.com/ajax/libs/firacode/6.2.0/woff2/FiraCode-Bold.woff2") format("woff2"),
                url("https://cdnjs.cloudflare.com/ajax/libs/firacode/6.2.0/woff/FiraCode-Bold.woff") format("woff");
        font-style: bold;
        font-weight: 700;
    }

    .terminal-1535474331-matrix {
        font-family: Fira Code, monospace;
        font-size: 20px;
        line-height: 24.4px;
        font-variant-east-asian: full-width;
    }

    .terminal-1535474331-title {
        font-size: 18px;
        font-weight: bold;
        font-family: arial;
    }

    .terminal-1535474331-r1 { fill: #c5c8c6 }
.terminal-1535474331-r2 { fill: #c9a0e0;font-weight: bold }
.terminal-1535474331-r3 { fill: #bbb7bd }
.terminal-1535474331-r4 { fill: #ffffff }
.terminal-1535474331-r5 { fill: #bbb7bd;font-style: italic; }
.terminal-1535474331-r6 { fill: #625e4c }
.terminal-1535474331-r7 { fill: #00ff00 }
.terminal-1535474331-r8 { fill: #a3a3a3 }
.terminal-1535474331-r9 { fill: #303030 }
.terminal-1535474331-r10 { fill: #b180d7 }
.terminal-1535474331-r11 { fill: #fe9800 }
.terminal-1535474331-r12 { fill: #382e3f }
.terminal-1535474331-r13 { fill: #1a1a1a }
.terminal-1535474331-r14 { fill: #ffffff;font-weight: bold }
.terminal-1535474331-r15 { fill: #949494;font-weight: bold }
.terminal-1535474331-r16 { fill: #87818b }
.terminal-1535474331-r17 { fill: #b180d7;font-weight: bold }
.terminal-1535474331-r18 { fill: #474747 }
    </style>

    <defs>
    <clipPath id="terminal-1535474331-clip-terminal">
      <rect x="0" y="0" width="975.0" height="584.5999999999999" />
    </clipPath>
    <clipPath id="terminal-1535474331-line-0">
    <rect x="0" y="1.5" width="976" height="24.65"/>
            </clipPath>
<clipPath id="terminal-1535474331-line-1">
    <rect x="0" y="25.9" width="976" height="24.65"/>
            </clipPath>
<clipPath id="terminal-1535474331-line-2">
    <rect x="0" y="50.3" width="976" height="24.65"/>
            </clipPath>
<clipPath id="terminal-1535474331-line-3">
    <rect x="0" y="74.7" width="976" height="24.65"/>
            </clipPath>
<clipPath id="terminal-1535474331-line-4">
    <rect x="0" y="99.1" width="976" height="24.65"/>
            </clipPath>
<clipPath id="terminal-1535474331-line-5">
    <rect x="0" y="123.5" width="976" height="24.65"/>
            </clipPath>
<clipPath id="terminal-1535474331-line-6">
    <rect x="0" y="147.9" width="976" height="24.65"/>
            </clipPath>
<clipPath id="terminal-1535474331-line-7">
    <rect x="0" y="172.3" width="976" height="24.65"/>
            </clipPath>
<clipPath id="terminal-1535474331-line-8">
    <rect x="0" y="196.7" width="976" height="24.65"/>
            </clipPath>
<clipPath id="terminal-1535474331-line-9">
    <rect x="0" y="221.1" width="976" height="24.65"/>
            </clipPath>
<clipPath id="terminal-1535474331-line-10">
    <rect x="0" y="245.5" width="976" height="24.65"/>
            </clipPath>
<clipPath id="terminal-1535474331-line-11">
    <rect x="0" y="269.9" width="976" height="24.65"/>
            </clipPath>
<clipPath id="terminal-1535474331-line-12">
    <rect x="0" y="294.3" width="976" height="24.65"/>
            </clipPath>
<clipPath id="terminal-1535474331-line-13">
    <rect x="0" y="318.7" width="976" height="24.65"/>
            </clipPath>
<clipPath id="terminal-1535474331-line-14">
    <rect x="0" y="343.1" width="976" height="24.65"/>
            </clipPath>
<clipPath id="terminal-1535474331-line-15">
    <rect x="0" y="367.5" width="976" height="24.65"/>
            </clipPath>
<clipPath id="terminal-1535474331-line-16">
    <rect x="0" y="391.9" width="976" height="24.65"/>
            </clipPath>
<clipPath id="terminal-1535474331-line-17">
    <rect x="0" y="416.3" width="976" height="24.65"/>
            </clipPath>
<clipPath id="terminal-1535474331-line-18">
    <rect x="0" y="440.7" width="976" height="24.65"/>
            </clipPath>
<clipPath id="terminal-1535474331-line-19">
    <rect x="0" y="465.1" width="976" height="24.65"/>
            </clipPath>
<clipPath id="terminal-1535474331-line-20">
    <rect x="0" y="489.5" width="976" height="24.65"/>
            </clipPath>
<clipPath id="terminal-1535474331-line-21">
    <rect x="0" y="513.9" width="976" height="24.65"/>
            </clipPath>
<clipPath id="terminal-1535474331-line-22">
    <rect x="0" y="538.3" width="976" height="24.65"/>
            </clipPath>
    </defs>

    <rect fill="#292929" stroke="rgba(255,255,255,0.35)" stroke-width="1" x="1" y="1" width="992" height="633.6" rx="8"/><text class="terminal-1535474331-title" fill="#c5c8c6" text-anchor="middle" x="496" y="27">HandsomeAgentApp</text>
            <g transform="translate(26,22)">
            <circle cx="0" cy="0" r="7" fill="#ff5f57"/>
            <circle cx="22" cy="0" r="7" fill="#febc2e"/>
            <circle cx="44" cy="0" r="7" fill="#28c840"/>
            </g>
        
    <g transform="translate(9, 41)" clip-path="url(#terminal-1535474331-clip-terminal)">
    <rect fill="#382e3f" x="0" y="1.5" width="24.4" height="24.65" shape-rendering="crispEdges"/><rect fill="#382e3f" x="24.4" y="1.5" width="390.4" height="24.65" shape-rendering="crispEdges"/><rect fill="#382e3f" x="414.8" y="1.5" width="24.4" height="24.65" shape-rendering="crispEdges"/><rect fill="#382e3f" x="439.2" y="1.5" width="48.8" height="24.65" shape-rendering="crispEdges"/><rect fill="#382e3f" x="488" y="1.5" width="24.4" height="24.65" shape-rendering="crispEdges"/><rect fill="#382e3f" x="512.4" y="1.5" width="61" height="24.65" shape-rendering="crispEdges"/><rect fill="#382e3f" x="573.4" y="1.5" width="12.2" height="24.65" shape-rendering="crispEdges"/><rect fill="#382e3f" x="585.6" y="1.5" width="12.2" height="24.65" shape-rendering="crispEdges"/><rect fill="#382e3f" x="597.8" y="1.5" width="292.8" height="24.65" shape-rendering="crispEdges"/><rect fill="#382e3f" x="890.6" y="1.5" width="24.4" height="24.65" shape-rendering="crispEdges"/><rect fill="#382e3f" x="915" y="1.5" width="24.4" height="24.65" shape-rendering="crispEdges"/><rect fill="#b180d7" x="939.4" y="1.5" width="36.6" height="24.65" shape-rendering="crispEdges"/><rect fill="#382e3f" x="0" y="25.9" width="24.4" height="24.65" shape-rendering="crispEdges"/><rect fill="#382e3f" x="24.4" y="25.9" width="390.4" height="24.65" shape-rendering="crispEdges"/><rect fill="#382e3f" x="414.8" y="25.9" width="24.4" height="24.65" shape-rendering="crispEdges"/><rect fill="#382e3f" x="439.2" y="25.9" width="48.8" height="24.65" shape-rendering="crispEdges"/><rect fill="#382e3f" x="488" y="25.9" width="24.4" height="24.65" shape-rendering="crispEdges"/><rect fill="#382e3f" x="512.4" y="25.9" width="366" height="24.65" shape-rendering="crispEdges"/><rect fill="#382e3f" x="878.4" y="25.9" width="12.2" height="24.65" shape-rendering="crispEdges"/><rect fill="#382e3f" x="890.6" y="25.9" width="24.4" height="24.65" shape-rendering="crispEdges"/><rect fill="#382e3f" x="915" y="25.9" width="24.4" height="24.65" shape-rendering="crispEdges"/><rect fill="#b180d7" x="939.4" y="25.9" width="12.2" height="24.65" shape-rendering="crispEdges"/><rect fill="#b180d7" x="951.6" y="25.9" width="12.2" height="24.65" shape-rendering="crispEdges"/><rect fill="#b180d7" x="963.8" y="25.9" width="12.2" height="24.65" shape-rendering="crispEdges"/><rect fill="#382e3f" x="0" y="50.3" width="24.4" height="24.65" shape-rendering="crispEdges"/><rect fill="#382e3f" x="24.4" y="50.3" width="390.4" height="24.65" shape-rendering="crispEdges"/><rect fill="#382e3f" x="414.8" y="50.3" width="24.4" height="24.65" shape-rendering="crispEdges"/><rect fill="#382e3f" x="439.2" y="50.3" width="48.8" height="24.65" shape-rendering="crispEdges"/><rect fill="#382e3f" x="488" y="50.3" width="24.4" height="24.65" shape-rendering="crispEdges"/><rect fill="#382e3f" x="512.4" y="50.3" width="122" height="24.65" shape-rendering="crispEdges"/><rect fill="#382e3f" x="634.4" y="50.3" width="256.2" height="24.65" shape-rendering="crispEdges"/><rect fill="#382e3f" x="890.6" y="50.3" width="24.4" height="24.65" shape-rendering="crispEdges"/><rect fill="#382e3f" x="915" y="50.3" width="24.4" height="24.65" shape-rendering="crispEdges"/><rect fill="#b180d7" x="939.4" y="50.3" width="36.6" height="24.65" shape-rendering="crispEdges"/><rect fill="#1a1a1a" x="0" y="74.7" width="12.2" height="24.65" shape-rendering="crispEdges"/><rect fill="#1a1a1a" x="12.2" y="74.7" width="341.6" height="24.65" shape-rendering="crispEdges"/><rect fill="#1a1a1a" x="353.8" y="74.7" width="12.2" height="24.65" shape-rendering="crispEdges"/><rect fill="#1a1a1a" x="366" y="74.7" width="12.2" height="24.65" shape-rendering="crispEdges"/><rect fill="#1a1a1a" x="378.2" y="74.7" width="585.6" height="24.65" shape-rendering="crispEdges"/><rect fill="#1a1a1a" x="963.8" y="74.7" width="12.2" height="24.65" shape-rendering="crispEdges"/><rect fill="#1a1a1a" x="0" y="99.1" width="12.2" height="24.65" shape-rendering="crispEdges"/><rect fill="#1a1a1a" x="12.2" y="99.1" width="341.6" height="24.65" shape-rendering="crispEdges"/><rect fill="#1a1a1a" x="353.8" y="99.1" width="12.2" height="24.65" shape-rendering="crispEdges"/><rect fill="#1a1a1a" x="366" y="99.1" width="12.2" height="24.65" shape-rendering="crispEdges"/><rect fill="#1a1a1a" x="378.2" y="99.1" width="12.2" height="24.65" shape-rendering="crispEdges"/><rect fill="#1a1a1a" x="390.4" y="99.1" width="48.8" height="24.65" shape-rendering="crispEdges"/><rect fill="#1a1a1a" x="439.2" y="99.1" width="12.2" height="24.65" shape-rendering="crispEdges"/><rect fill="#1a1a1a" x="451.4" y="99.1" width="12.2" height="24.65" shape-rendering="crispEdges"/><rect fill="#1a1a1a" x="463.6" y="99.1" width="48.8" height="24.65" shape-rendering="crispEdges"/><rect fill="#1a1a1a" x="512.4" y="99.1" width="12.2" height="24.65" shape-rendering="crispEdges"/><rect fill="#1a1a1a" x="524.6" y="99.1" width="12.2" height="24.65" shape-rendering="crispEdges"/><rect fill="#1a1a1a" x="536.8" y="99.1" width="48.8" height="24.65" shape-rendering="crispEdges"/><rect fill="#1a1a1a" x="585.6" y="99.1" width="12.2" height="24.65" shape-rendering="crispEdges"/><rect fill="#1a1a1a" x="597.8" y="99.1" width="12.2" height="24.65" shape-rendering="crispEdges"/><rect fill="#1a1a1a" x="610" y="99.1" width="48.8" height="24.65" shape-rendering="crispEdges"/><rect fill="#1a1a1a" x="658.8" y="99.1" width="12.2" height="24.65" shape-rendering="crispEdges"/><rect fill="#1a1a1a" x="671" y="99.1" width="292.8" height="24.65" shape-rendering="crispEdges"/><rect fill="#1a1a1a" x="963.8" y="99.1" width="12.2" height="24.65" shape-rendering="crispEdges"/><rect fill="#1a1a1a" x="0" y="123.5" width="12.2" height="24.65" shape-rendering="crispEdges"/><rect fill="#1a1a1a" x="12.2" y="123.5" width="341.6" height="24.65" shape-rendering="crispEdges"/><rect fill="#1a1a1a" x="353.8" y="123.5" width="12.2" height="24.65" shape-rendering="crispEdges"/><rect fill="#1a1a1a" x="366" y="123.5" width="12.2" height="24.65" shape-rendering="crispEdges"/><rect fill="#1a1a1a" x="378.2" y="123.5" width="219.6" height="24.65" shape-rendering="crispEdges"/><rect fill="#1a1a1a" x="597.8" y="123.5" width="12.2" height="24.65" shape-rendering="crispEdges"/><rect fill="#1a1a1a" x="610" y="123.5" width="48.8" height="24.65" shape-rendering="crispEdges"/><rect fill="#1a1a1a" x="658.8" y="123.5" width="12.2" height="24.65" shape-rendering="crispEdges"/><rect fill="#1a1a1a" x="671" y="123.5" width="292.8" height="24.65" shape-rendering="crispEdges"/><rect fill="#1a1a1a" x="963.8" y="123.5" width="12.2" height="24.65" shape-rendering="crispEdges"/><rect fill="#1a1a1a" x="0" y="147.9" width="12.2" height="24.65" shape-rendering="crispEdges"/><rect fill="#1a1a1a" x="12.2" y="147.9" width="341.6" height="24.65" shape-rendering="crispEdges"/><rect fill="#1a1a1a" x="353.8" y="147.9" width="12.2" height="24.65" shape-rendering="crispEdges"/><rect fill="#1a1a1a" x="366" y="147.9" width="12.2" height="24.65" shape-rendering="crispEdges"/><rect fill="#1a1a1a" x="378.2" y="147.9" width="12.2" height="24.65" shape-rendering="crispEdges"/><rect fill="#1a1a1a" x="390.4" y="147.9" width="524.6" height="24.65" shape-rendering="crispEdges"/><rect fill="#1a1a1a" x="915" y="147.9" width="36.6" height="24.65" shape-rendering="crispEdges"/><rect fill="#1a1a1a" x="951.6" y="147.9" width="12.2" height="24.65" shape-rendering="crispEdges"/><rect fill="#1a1a1a" x="963.8" y="147.9" width="12.2" height="24.65" shape-rendering="crispEdges"/><rect fill="#1a1a1a" x="0" y="172.3" width="12.2" height="24.65" shape-rendering="crispEdges"/><rect fill="#1a1a1a" x="12.2" y="172.3" width="341.6" height="24.65" shape-rendering="crispEdges"/><rect fill="#1a1a1a" x="353.8" y="172.3" width="12.2" height="24.65" shape-rendering="crispEdges"/><rect fill="#1a1a1a" x="366" y="172.3" width="12.2" height="24.65" shape-rendering="crispEdges"/><rect fill="#1a1a1a" x="378.2" y="172.3" width="12.2" height="24.65" shape-rendering="crispEdges"/><rect fill="#1a1a1a" x="390.4" y="172.3" width="183" height="24.65" shape-rendering="crispEdges"/><rect fill="#1a1a1a" x="573.4" y="172.3" width="378.2" height="24.65" shape-rendering="crispEdges"/><rect fill="#1a1a1a" x="951.6" y="172.3" width="12.2" height="24.65" shape-rendering="crispEdges"/><rect fill="#1a1a1a" x="963.8" y="172.3" width="12.2" height="24.65" shape-rendering="crispEdges"/><rect fill="#1a1a1a" x="0" y="196.7" width="12.2" height="24.65" shape-rendering="crispEdges"/><rect fill="#1a1a1a" x="12.2" y="196.7" width="341.6" height="24.65" shape-rendering="crispEdges"/><rect fill="#1a1a1a" x="353.8" y="196.7" width="12.2" height="24.65" shape-rendering="crispEdges"/><rect fill="#1a1a1a" x="366" y="196.7" width="12.2" height="24.65" shape-rendering="crispEdges"/><rect fill="#1a1a1a" x="378.2" y="196.7" width="12.2" height="24.65" shape-rendering="crispEdges"/><rect fill="#1a1a1a" x="390.4" y="196.7" width="561.2" height="24.65" shape-rendering="crispEdges"/><rect fill="#1a1a1a" x="951.6" y="196.7" width="12.2" height="24.65" shape-rendering="crispEdges"/><rect fill="#1a1a1a" x="963.8" y="196.7" width="12.2" height="24.65" shape-rendering="crispEdges"/><rect fill="#1a1a1a" x="0" y="221.1" width="12.2" height="24.65" shape-rendering="crispEdges"/><rect fill="#1a1a1a" x="12.2" y="221.1" width="341.6" height="24.65" shape-rendering="crispEdges"/><rect fill="#1a1a1a" x="353.8" y="221.1" width="12.2" height="24.65" shape-rendering="crispEdges"/><rect fill="#1a1a1a" x="366" y="221.1" width="12.2" height="24.65" shape-rendering="crispEdges"/><rect fill="#1a1a1a" x="378.2" y="221.1" width="12.2" height="24.65" shape-rendering="crispEdges"/><rect fill="#1a1a1a" x="390.4" y="221.1" width="561.2" height="24.65" shape-rendering="crispEdges"/><rect fill="#1a1a1a" x="951.6" y="221.1" width="12.2" height="24.65" shape-rendering="crispEdges"/><rect fill="#1a1a1a" x="963.8" y="221.1" width="12.2" height="24.65" shape-rendering="crispEdges"/><rect fill="#1a1a1a" x="0" y="245.5" width="12.2" height="24.65" shape-rendering="crispEdges"/><rect fill="#1a1a1a" x="12.2" y="245.5" width="341.6" height="24.65" shape-rendering="crispEdges"/><rect fill="#1a1a1a" x="353.8" y="245.5" width="12.2" height="24.65" shape-rendering="crispEdges"/><rect fill="#1a1a1a" x="366" y="245.5" width="12.2" height="24.65" shape-rendering="crispEdges"/><rect fill="#1a1a1a" x="378.2" y="245.5" width="12.2" height="24.65" shape-rendering="crispEdges"/><rect fill="#1a1a1a" x="390.4" y="245.5" width="366" height="24.65" shape-rendering="crispEdges"/><rect fill="#1a1a1a" x="756.4" y="245.5" width="195.2" height="24.65" shape-rendering="crispEdges"/><rect fill="#1a1a1a" x="951.6" y="245.5" width="12.2" height="24.65" shape-rendering="crispEdges"/><rect fill="#1a1a1a" x="963.8" y="245.5" width="12.2" height="24.65" shape-rendering="crispEdges"/><rect fill="#1a1a1a" x="0" y="269.9" width="12.2" height="24.65" shape-rendering="crispEdges"/><rect fill="#1a1a1a" x="12.2" y="269.9" width="341.6" height="24.65" shape-rendering="crispEdges"/><rect fill="#1a1a1a" x="353.8" y="269.9" width="12.2" height="24.65" shape-rendering="crispEdges"/><rect fill="#1a1a1a" x="366" y="269.9" width="12.2" height="24.65" shape-rendering="crispEdges"/><rect fill="#1a1a1a" x="378.2" y="269.9" width="12.2" height="24.65" shape-rendering="crispEdges"/><rect fill="#1a1a1a" x="390.4" y="269.9" width="561.2" height="24.65" shape-rendering="crispEdges"/><rect fill="#1a1a1a" x="951.6" y="269.9" width="12.2" height="24.65" shape-rendering="crispEdges"/><rect fill="#1a1a1a" x="963.8" y="269.9" width="12.2" height="24.65" shape-rendering="crispEdges"/><rect fill="#1a1a1a" x="0" y="294.3" width="12.2" height="24.65" shape-rendering="crispEdges"/><rect fill="#1a1a1a" x="12.2" y="294.3" width="341.6" height="24.65" shape-rendering="crispEdges"/><rect fill="#1a1a1a" x="353.8" y="294.3" width="12.2" height="24.65" shape-rendering="crispEdges"/><rect fill="#1a1a1a" x="366" y="294.3" width="12.2" height="24.65" shape-rendering="crispEdges"/><rect fill="#1a1a1a" x="378.2" y="294.3" width="12.2" height="24.65" shape-rendering="crispEdges"/><rect fill="#2a2a2a" x="390.4" y="294.3" width="12.2" height="24.65" shape-rendering="crispEdges"/><rect fill="#2a2a2a" x="402.6" y="294.3" width="109.8" height="24.65" shape-rendering="crispEdges"/><rect fill="#2a2a2a" x="512.4" y="294.3" width="427" height="24.65" shape-rendering="crispEdges"/><rect fill="#2a2a2a" x="939.4" y="294.3" width="12.2" height="24.65" shape-rendering="crispEdges"/><rect fill="#1a1a1a" x="951.6" y="294.3" width="12.2" height="24.65" shape-rendering="crispEdges"/><rect fill="#1a1a1a" x="963.8" y="294.3" width="12.2" height="24.65" shape-rendering="crispEdges"/><rect fill="#1a1a1a" x="0" y="318.7" width="12.2" height="24.65" shape-rendering="crispEdges"/><rect fill="#1a1a1a" x="12.2" y="318.7" width="341.6" height="24.65" shape-rendering="crispEdges"/><rect fill="#1a1a1a" x="353.8" y="318.7" width="12.2" height="24.65" shape-rendering="crispEdges"/><rect fill="#1a1a1a" x="366" y="318.7" width="12.2" height="24.65" shape-rendering="crispEdges"/><rect fill="#1a1a1a" x="378.2" y="318.7" width="585.6" height="24.65" shape-rendering="crispEdges"/><rect fill="#1a1a1a" x="963.8" y="318.7" width="12.2" height="24.65" shape-rendering="crispEdges"/><rect fill="#1a1a1a" x="0" y="343.1" width="12.2" height="24.65" shape-rendering="crispEdges"/><rect fill="#1a1a1a" x="12.2" y="343.1" width="341.6" height="24.65" shape-rendering="crispEdges"/><rect fill="#1a1a1a" x="353.8" y="343.1" width="12.2" height="24.65" shape-rendering="crispEdges"/><rect fill="#1a1a1a" x="366" y="343.1" width="12.2" height="24.65" shape-rendering="crispEdges"/><rect fill="#1a1a1a" x="378.2" y="343.1" width="585.6" height="24.65" shape-rendering="crispEdges"/><rect fill="#1a1a1a" x="963.8" y="343.1" width="12.2" height="24.65" shape-rendering="crispEdges"/><rect fill="#b180d7" x="0" y="367.5" width="24.4" height="24.65" shape-rendering="crispEdges"/><rect fill="#b180d7" x="24.4" y="367.5" width="24.4" height="24.65" shape-rendering="crispEdges"/><rect fill="#b180d7" x="48.8" y="367.5" width="24.4" height="24.65" shape-rendering="crispEdges"/><rect fill="#2a2a2a" x="73.2" y="367.5" width="73.2" height="24.65" shape-rendering="crispEdges"/><rect fill="#2a2a2a" x="146.4" y="367.5" width="158.6" height="24.65" shape-rendering="crispEdges"/><rect fill="#2a2a2a" x="305" y="367.5" width="12.2" height="24.65" shape-rendering="crispEdges"/><rect fill="#2a2a2a" x="317.2" y="367.5" width="12.2" height="24.65" shape-rendering="crispEdges"/><rect fill="#2a2a2a" x="329.4" y="367.5" width="12.2" height="24.65" shape-rendering="crispEdges"/><rect fill="#b180d7" x="341.6" y="367.5" width="24.4" height="24.65" shape-rendering="crispEdges"/><rect fill="#b180d7" x="366" y="367.5" width="73.2" height="24.65" shape-rendering="crispEdges"/><rect fill="#b180d7" x="439.2" y="367.5" width="24.4" height="24.65" shape-rendering="crispEdges"/><rect fill="#b180d7" x="463.6" y="367.5" width="97.6" height="24.65" shape-rendering="crispEdges"/><rect fill="#b180d7" x="561.2" y="367.5" width="24.4" height="24.65" shape-rendering="crispEdges"/><rect fill="#b180d7" x="585.6" y="367.5" width="24.4" height="24.65" shape-rendering="crispEdges"/><rect fill="#b180d7" x="610" y="367.5" width="12.2" height="24.65" shape-rendering="crispEdges"/><rect fill="#b180d7" x="622.2" y="367.5" width="219.6" height="24.65" shape-rendering="crispEdges"/><rect fill="#b180d7" x="841.8" y="367.5" width="12.2" height="24.65" shape-rendering="crispEdges"/><rect fill="#b180d7" x="854" y="367.5" width="85.4" height="24.65" shape-rendering="crispEdges"/><rect fill="#b180d7" x="939.4" y="367.5" width="12.2" height="24.65" shape-rendering="crispEdges"/><rect fill="#b180d7" x="951.6" y="367.5" width="24.4" height="24.65" shape-rendering="crispEdges"/><rect fill="#382e3f" x="0" y="391.9" width="12.2" height="24.65" shape-rendering="crispEdges"/><rect fill="#382e3f" x="12.2" y="391.9" width="951.6" height="24.65" shape-rendering="crispEdges"/><rect fill="#382e3f" x="963.8" y="391.9" width="12.2" height="24.65" shape-rendering="crispEdges"/><rect fill="#382e3f" x="0" y="416.3" width="12.2" height="24.65" shape-rendering="crispEdges"/><rect fill="#382e3f" x="12.2" y="416.3" width="256.2" height="24.65" shape-rendering="crispEdges"/><rect fill="#382e3f" x="268.4" y="416.3" width="695.4" height="24.65" shape-rendering="crispEdges"/><rect fill="#382e3f" x="963.8" y="416.3" width="12.2" height="24.65" shape-rendering="crispEdges"/><rect fill="#382e3f" x="0" y="440.7" width="12.2" height="24.65" shape-rendering="crispEdges"/><rect fill="#382e3f" x="12.2" y="440.7" width="951.6" height="24.65" shape-rendering="crispEdges"/><rect fill="#382e3f" x="963.8" y="440.7" width="12.2" height="24.65" shape-rendering="crispEdges"/><rect fill="#382e3f" x="0" y="465.1" width="12.2" height="24.65" shape-rendering="crispEdges"/><rect fill="#382e3f" x="12.2" y="465.1" width="951.6" height="24.65" shape-rendering="crispEdges"/><rect fill="#382e3f" x="963.8" y="465.1" width="12.2" height="24.65" shape-rendering="crispEdges"/><rect fill="#382e3f" x="0" y="489.5" width="12.2" height="24.65" shape-rendering="crispEdges"/><rect fill="#382e3f" x="12.2" y="489.5" width="951.6" height="24.65" shape-rendering="crispEdges"/><rect fill="#382e3f" x="963.8" y="489.5" width="12.2" height="24.65" shape-rendering="crispEdges"/><rect fill="#382e3f" x="0" y="513.9" width="12.2" height="24.65" shape-rendering="crispEdges"/><rect fill="#382e3f" x="12.2" y="513.9" width="951.6" height="24.65" shape-rendering="crispEdges"/><rect fill="#382e3f" x="963.8" y="513.9" width="12.2" height="24.65" shape-rendering="crispEdges"/><rect fill="#382e3f" x="0" y="538.3" width="12.2" height="24.65" shape-rendering="crispEdges"/><rect fill="#382e3f" x="12.2" y="538.3" width="951.6" height="24.65" shape-rendering="crispEdges"/><rect fill="#382e3f" x="963.8" y="538.3" width="12.2" height="24.65" shape-rendering="crispEdges"/><rect fill="#1a1a1a" x="0" y="562.7" width="48.8" height="24.65" shape-rendering="crispEdges"/><rect fill="#1a1a1a" x="48.8" y="562.7" width="61" height="24.65" shape-rendering="crispEdges"/><rect fill="#1a1a1a" x="109.8" y="562.7" width="48.8" height="24.65" shape-rendering="crispEdges"/><rect fill="#1a1a1a" x="158.6" y="562.7" width="97.6" height="24.65" shape-rendering="crispEdges"/><rect fill="#1a1a1a" x="256.2" y="562.7" width="48.8" height="24.65" shape-rendering="crispEdges"/><rect fill="#1a1a1a" x="305" y="562.7" width="61" height="24.65" shape-rendering="crispEdges"/><rect fill="#1a1a1a" x="366" y="562.7" width="48.8" height="24.65" shape-rendering="crispEdges"/><rect fill="#1a1a1a" x="414.8" y="562.7" width="109.8" height="24.65" shape-rendering="crispEdges"/><rect fill="#1a1a1a" x="524.6" y="562.7" width="48.8" height="24.65" shape-rendering="crispEdges"/><rect fill="#1a1a1a" x="573.4" y="562.7" width="61" height="24.65" shape-rendering="crispEdges"/><rect fill="#1a1a1a" x="634.4" y="562.7" width="195.2" height="24.65" shape-rendering="crispEdges"/><rect fill="#1a1a1a" x="829.6" y="562.7" width="12.2" height="24.65" shape-rendering="crispEdges"/><rect fill="#1a1a1a" x="841.8" y="562.7" width="24.4" height="24.65" shape-rendering="crispEdges"/><rect fill="#1a1a1a" x="866.2" y="562.7" width="97.6" height="24.65" shape-rendering="crispEdges"/><rect fill="#1a1a1a" x="963.8" y="562.7" width="12.2" height="24.65" shape-rendering="crispEdges"/>
    <g class="terminal-1535474331-matrix">
    <text class="terminal-1535474331-r2" x="24.4" y="20" textLength="390.4" clip-path="url(#terminal-1535474331-line-0)">░█░█░█▀█░█▀█░█▀▄░█▀▀░█▀█░█▄█░█▀▀</text><text class="terminal-1535474331-r3" x="512.4" y="20" textLength="61" clip-path="url(#terminal-1535474331-line-0)">0.0.1</text><text class="terminal-1535474331-r3" x="585.6" y="20" textLength="12.2" clip-path="url(#terminal-1535474331-line-0)">·</text><text class="terminal-1535474331-r1" x="976" y="20" textLength="12.2" clip-path="url(#terminal-1535474331-line-0)">
</text><text class="terminal-1535474331-r2" x="24.4" y="44.4" textLength="390.4" clip-path="url(#terminal-1535474331-line-1)">░█▀█░█▀█░█░█░█░█░▀▀█░█░█░█░█░█▀▀</text><text class="terminal-1535474331-r5" x="512.4" y="44.4" textLength="183" clip-path="url(#terminal-1535474331-line-1)">深渊凝视你时，你也在凝视深渊。</text><text class="terminal-1535474331-r4" x="951.6" y="44.4" textLength="12.2" clip-path="url(#terminal-1535474331-line-1)">►</text><text class="terminal-1535474331-r1" x="976" y="44.4" textLength="12.2" clip-path="url(#terminal-1535474331-line-1)">
</text><text class="terminal-1535474331-r2" x="24.4" y="68.8" textLength="390.4" clip-path="url(#terminal-1535474331-line-2)">░▀░▀░▀░▀░▀░▀░▀▀░░▀▀▀░▀▀▀░▀░▀░▀▀▀</text><text class="terminal-1535474331-r6" x="512.4" y="68.8" textLength="122" clip-path="url(#terminal-1535474331-line-2)">E:\Awesome</text><text class="terminal-1535474331-r1" x="976" y="68.8" textLength="12.2" clip-path="url(#terminal-1535474331-line-2)">
</text><text class="terminal-1535474331-r1" x="976" y="93.2" textLength="12.2" clip-path="url(#terminal-1535474331-line-3)">
</text><text class="terminal-1535474331-r8" x="390.4" y="117.6" textLength="24.4" clip-path="url(#terminal-1535474331-line-4)">目标</text><text class="terminal-1535474331-r8" x="463.6" y="117.6" textLength="24.4" clip-path="url(#terminal-1535474331-line-4)">文件</text><text class="terminal-1535474331-r8" x="536.8" y="117.6" textLength="24.4" clip-path="url(#terminal-1535474331-line-4)">技能</text><text class="terminal-1535474331-r4" x="610" y="117.6" textLength="24.4" clip-path="url(#terminal-1535474331-line-4)">定时</text><text class="terminal-1535474331-r1" x="976" y="117.6" textLength="12.2" clip-path="url(#terminal-1535474331-line-4)">
</text><text class="terminal-1535474331-r9" x="378.2" y="142" textLength="219.6" clip-path="url(#terminal-1535474331-line-5)">━━━━━━━━━━━━━━━━━━</text><text class="terminal-1535474331-r9" x="597.8" y="142" textLength="12.2" clip-path="url(#terminal-1535474331-line-5)">╸</text><text class="terminal-1535474331-r10" x="610" y="142" textLength="48.8" clip-path="url(#terminal-1535474331-line-5)">━━━━</text><text class="terminal-1535474331-r9" x="658.8" y="142" textLength="12.2" clip-path="url(#terminal-1535474331-line-5)">╺</text><text class="terminal-1535474331-r9" x="671" y="142" textLength="292.8" clip-path="url(#terminal-1535474331-line-5)">━━━━━━━━━━━━━━━━━━━━━━━━</text><text class="terminal-1535474331-r1" x="976" y="142" textLength="12.2" clip-path="url(#terminal-1535474331-line-5)">
</text><text class="terminal-1535474331-r11" x="390.4" y="166.4" textLength="451.4" clip-path="url(#terminal-1535474331-line-6)">⚪&#160;ticker&#160;未启动&#160;(运行&#160;&#x27;handsome&#160;cron&#160;tick&#x27;</text><text class="terminal-1535474331-r1" x="976" y="166.4" textLength="12.2" clip-path="url(#terminal-1535474331-line-6)">
</text><text class="terminal-1535474331-r11" x="390.4" y="190.8" textLength="146.4" clip-path="url(#terminal-1535474331-line-7)">或启动&#160;gateway)</text><text class="terminal-1535474331-r1" x="976" y="190.8" textLength="12.2" clip-path="url(#terminal-1535474331-line-7)">
</text><text class="terminal-1535474331-r1" x="976" y="215.2" textLength="12.2" clip-path="url(#terminal-1535474331-line-8)">
</text><text class="terminal-1535474331-r12" x="390.4" y="239.6" textLength="561.2" clip-path="url(#terminal-1535474331-line-9)">──────────────────────────────────────────────</text><text class="terminal-1535474331-r1" x="976" y="239.6" textLength="12.2" clip-path="url(#terminal-1535474331-line-9)">
</text><text class="terminal-1535474331-r8" x="390.4" y="264" textLength="268.4" clip-path="url(#terminal-1535474331-line-10)">⏰&#160;&#160;3&#160;个任务&#160;·&#160;启用&#160;3&#160;·&#160;暂停&#160;0</text><text class="terminal-1535474331-r1" x="976" y="264" textLength="12.2" clip-path="url(#terminal-1535474331-line-10)">
</text><text class="terminal-1535474331-r1" x="976" y="288.4" textLength="12.2" clip-path="url(#terminal-1535474331-line-11)">
</text><text class="terminal-1535474331-r4" x="402.6" y="312.8" textLength="97.6" clip-path="url(#terminal-1535474331-line-12)">🟢&#160;&#160;daily</text><text class="terminal-1535474331-r1" x="976" y="312.8" textLength="12.2" clip-path="url(#terminal-1535474331-line-12)">
</text><text class="terminal-1535474331-r1" x="976" y="337.2" textLength="12.2" clip-path="url(#terminal-1535474331-line-13)">
</text><text class="terminal-1535474331-r1" x="976" y="361.6" textLength="12.2" clip-path="url(#terminal-1535474331-line-14)">
</text><text class="terminal-1535474331-r13" x="24.4" y="386" textLength="12.2" clip-path="url(#terminal-1535474331-line-15)">😄</text><text class="terminal-1535474331-r14" x="73.2" y="386" textLength="73.2" clip-path="url(#terminal-1535474331-line-15)">custom</text><text class="terminal-1535474331-r15" x="317.2" y="386" textLength="12.2" clip-path="url(#terminal-1535474331-line-15)">▼</text><text class="terminal-1535474331-r4" x="366" y="386" textLength="73.2" clip-path="url(#terminal-1535474331-line-15)">│&#160;n/a&#160;</text><text class="terminal-1535474331-r4" x="463.6" y="386" textLength="97.6" clip-path="url(#terminal-1535474331-line-15)">│&#160;0m&#160;0s&#160;</text><text class="terminal-1535474331-r10" x="585.6" y="386" textLength="12.2" clip-path="url(#terminal-1535474331-line-15)">🔧</text><text class="terminal-1535474331-r4" x="854" y="386" textLength="48.8" clip-path="url(#terminal-1535474331-line-15)">⚡&#160;单步</text><text class="terminal-1535474331-r1" x="976" y="386" textLength="12.2" clip-path="url(#terminal-1535474331-line-15)">
</text><text class="terminal-1535474331-r1" x="976" y="410.4" textLength="12.2" clip-path="url(#terminal-1535474331-line-16)">
</text><text class="terminal-1535474331-r16" x="12.2" y="434.8" textLength="183" clip-path="url(#terminal-1535474331-line-17)">输入消息...Enter&#160;发送</text><text class="terminal-1535474331-r1" x="976" y="434.8" textLength="12.2" clip-path="url(#terminal-1535474331-line-17)">
</text><text class="terminal-1535474331-r1" x="976" y="459.2" textLength="12.2" clip-path="url(#terminal-1535474331-line-18)">
</text><text class="terminal-1535474331-r1" x="976" y="483.6" textLength="12.2" clip-path="url(#terminal-1535474331-line-19)">
</text><text class="terminal-1535474331-r1" x="976" y="508" textLength="12.2" clip-path="url(#terminal-1535474331-line-20)">
</text><text class="terminal-1535474331-r1" x="976" y="532.4" textLength="12.2" clip-path="url(#terminal-1535474331-line-21)">
</text><text class="terminal-1535474331-r1" x="976" y="556.8" textLength="12.2" clip-path="url(#terminal-1535474331-line-22)">
</text><text class="terminal-1535474331-r17" x="0" y="581.2" textLength="48.8" clip-path="url(#terminal-1535474331-line-23)">&#160;^q&#160;</text><text class="terminal-1535474331-r4" x="48.8" y="581.2" textLength="61" clip-path="url(#terminal-1535474331-line-23)">Quit&#160;</text><text class="terminal-1535474331-r17" x="109.8" y="581.2" textLength="48.8" clip-path="url(#terminal-1535474331-line-23)">&#160;^b&#160;</text><text class="terminal-1535474331-r4" x="158.6" y="581.2" textLength="97.6" clip-path="url(#terminal-1535474331-line-23)">Sidebar&#160;</text><text class="terminal-1535474331-r17" x="256.2" y="581.2" textLength="48.8" clip-path="url(#terminal-1535474331-line-23)">&#160;f1&#160;</text><text class="terminal-1535474331-r4" x="305" y="581.2" textLength="61" clip-path="url(#terminal-1535474331-line-23)">Help&#160;</text><text class="terminal-1535474331-r17" x="366" y="581.2" textLength="48.8" clip-path="url(#terminal-1535474331-line-23)">&#160;f2&#160;</text><text class="terminal-1535474331-r4" x="414.8" y="581.2" textLength="109.8" clip-path="url(#terminal-1535474331-line-23)">Settings&#160;</text><text class="terminal-1535474331-r17" x="524.6" y="581.2" textLength="48.8" clip-path="url(#terminal-1535474331-line-23)">&#160;f3&#160;</text><text class="terminal-1535474331-r4" x="573.4" y="581.2" textLength="61" clip-path="url(#terminal-1535474331-line-23)">Logs&#160;</text><text class="terminal-1535474331-r18" x="829.6" y="581.2" textLength="12.2" clip-path="url(#terminal-1535474331-line-23)">▏</text><text class="terminal-1535474331-r17" x="841.8" y="581.2" textLength="24.4" clip-path="url(#terminal-1535474331-line-23)">^p</text><text class="terminal-1535474331-r4" x="866.2" y="581.2" textLength="97.6" clip-path="url(#terminal-1535474331-line-23)">&#160;palette</text>
    </g>
    </g>
</svg>
